<svg xmlns="http://www.w3.org/2000/svg" id="Layer_1" data-name="Layer 1" viewBox="0 0 550 190"><g id="LOG"><path d="M25.8,165.82c-3.77,0-6.8-1.18-9.09-3.53-2.29-2.35-3.43-5.28-3.43-8.78V36.79c0-3.5,1.21-6.43,3.63-8.78,2.42-2.35,5.52-3.53,9.29-3.53s6.77,1.18,8.99,3.53c2.22,2.36,3.33,5.29,3.33,8.78v116.71c0,3.5-1.14,6.43-3.43,8.78-2.29,2.36-5.38,3.53-9.29,3.53ZM113.03,23.47c3.23,0,5.89,1.31,7.98,3.94,2.09,2.63,3.13,5.29,3.13,7.98,0,2.83-1.21,5.45-3.63,7.88L35.89,124.23l-1.01-28.88L103.13,28.11c3.09-3.1,6.39-4.64,9.89-4.64ZM110.6,165.82c-3.77,0-6.8-1.55-9.09-4.64l-46.65-61.39,18.38-18.78,48.26,63.81c1.88,2.56,2.83,5.32,2.83,8.28,0,3.77-1.41,6.83-4.24,9.19-2.83,2.36-5.99,3.53-9.49,3.53Z" style="fill: #073a5a; stroke-width: 0px;"></path><path d="M251.84,24.48c3.23,0,5.86,1.08,7.87,3.23,2.02,2.15,3.03,4.85,3.03,8.08v117.72c0,3.5-1.18,6.43-3.53,8.78-2.36,2.36-5.28,3.53-8.78,3.53-1.75,0-3.53-.3-5.35-.91-1.82-.61-3.2-1.44-4.14-2.52l-79.36-100.76,5.25-3.23v96.12c0,3.23-1.04,5.93-3.13,8.08-2.09,2.16-4.81,3.23-8.18,3.23s-5.86-1.08-7.87-3.23c-2.02-2.15-3.03-4.85-3.03-8.08V36.79c0-3.5,1.18-6.43,3.53-8.78s5.28-3.53,8.78-3.53c1.88,0,3.84.37,5.86,1.11,2.02.74,3.5,1.85,4.44,3.33l76.93,98.14-3.43,2.42V35.78c0-3.23,1.01-5.92,3.03-8.08,2.02-2.15,4.71-3.23,8.08-3.23Z" style="fill: #073a5a; stroke-width: 0px;"></path><path d="M392.1,24.48c3.23,0,5.86,1.08,7.87,3.23,2.02,2.15,3.03,4.85,3.03,8.08v117.72c0,3.5-1.18,6.43-3.53,8.78-2.36,2.36-5.28,3.53-8.78,3.53-1.75,0-3.53-.3-5.35-.91-1.82-.61-3.2-1.44-4.14-2.52l-79.36-100.76,5.25-3.23v96.12c0,3.23-1.04,5.93-3.13,8.08-2.09,2.16-4.81,3.23-8.18,3.23s-5.86-1.08-7.87-3.23c-2.02-2.15-3.03-4.85-3.03-8.08V36.79c0-3.5,1.18-6.43,3.53-8.78s5.28-3.53,8.78-3.53c1.88,0,3.84.37,5.86,1.11,2.02.74,3.5,1.85,4.44,3.33l76.93,98.14-3.43,2.42V35.78c0-3.23,1.01-5.92,3.03-8.08,2.02-2.15,4.71-3.23,8.08-3.23Z" style="fill: #7ad346; stroke-width: 0px;"></path><path d="M433.31,166.83c-2.96,0-5.52-1.11-7.67-3.33-2.15-2.22-3.23-4.68-3.23-7.37,0-2.96,1.01-5.72,3.03-8.28l40.99-55.53,13.33,19.59-36.35,49.27c-2.69,3.77-6.06,5.65-10.1,5.65ZM435.13,23.87c3.9,0,7.2,1.75,9.89,5.25l88.85,118.13c1.62,2.15,2.42,4.64,2.42,7.47,0,3.77-1.35,6.73-4.04,8.88-2.69,2.15-5.38,3.23-8.08,3.23-3.91,0-7.2-1.75-9.9-5.25l-88.85-118.13c-1.75-2.15-2.63-4.57-2.63-7.27,0-3.5,1.31-6.43,3.94-8.78,2.63-2.35,5.42-3.53,8.38-3.53ZM525.19,24.28c3.1,0,5.76,1.21,7.98,3.63,2.22,2.42,3.33,4.98,3.33,7.67s-.88,4.98-2.62,7.27l-40.59,53.51-13.73-18.78,35.74-47.45c2.83-3.9,6.12-5.86,9.89-5.86Z" style="fill: #073a5a; stroke-width: 0px;"></path></g></svg>